<svg width="56" height="81" viewBox="0 0 56 81" fill="none" xmlns="http://www.w3.org/2000/svg">
<path id="icon/action/lightbulb_outline_24px" fill-rule="evenodd" clip-rule="evenodd" d="M28 0.87674C12.7208 0.87674 0.291656 13.3059 0.291656 28.5851C0.291656 38.0059 5.00207 46.2788 12.1667 51.3059V60.2517C12.1667 62.4288 13.9479 64.2101 16.125 64.2101H39.875C42.0521 64.2101 43.8333 62.4288 43.8333 60.2517V51.3059C50.9979 46.2788 55.7083 38.0059 55.7083 28.5851C55.7083 13.3059 43.2792 0.87674 28 0.87674ZM16.125 76.0851C16.125 78.2622 17.9062 80.0434 20.0833 80.0434H35.9167C38.0938 80.0434 39.875 78.2622 39.875 76.0851V72.1267H16.125V76.0851ZM35.9167 47.1892L39.2812 44.8143C44.625 41.0934 47.7917 35.0372 47.7917 28.5851C47.7917 17.6601 38.925 8.79342 28 8.79342C17.075 8.79342 8.20833 17.6601 8.20833 28.5851C8.20833 35.0372 11.375 41.0934 16.7188 44.8143L20.0833 47.1892V56.2934H35.9167V47.1892Z" fill="#F9B900"/>
</svg>
